<mxfile
  host="Electron" 
  agent="Mozilla/5.0 (Macintosh; Intel Mac OS X 10_15_7) AppleWebKit/537.36 (KHTML, like Gecko) draw.io/25.0.2 Chrome/128.0.6613.186 Electron/32.2.5 Safari/537.36" 
  version="25.0.2"
  >
  <diagram
    name="web-app"
    >
    <mxGraphModel
      grid="1" 
      gridSize="10" 
      guides="1" 
      tooltips="1" 
      connect="1" 
      arrows="1" 
      fold="1" 
      page="1" 
      pageScale="1" 
      pageWidth="1" 
      pageHeight="1" 
      math="0" 
      shadow="0"
      >
      <root>
        <mxCell
          id="page"
          />
        <mxCell
          id="root" 
          parent="page"
          />
        <mxCell
          style="verticalAlign=top;aspect=fixed;align=center;spacingLeft=5;spacingRight=5;spacingBottom=5;strokeColor=none;" 
          id="app" 
          parent="root" 
          value="Web App" 
          vertex="1"
          >
          <mxGeometry
            as="geometry" 
            width="480" 
            height="370" 
            x="0" 
            y="0"
            />
          </mxCell>
        <mxCell
          style="rounded=1;whiteSpace=wrap;verticalAlign=top;align=center;sketch=0;outlineConnect=0;fontColor=#232F3E;gradientColor=none;fillColor=#232F3D;strokeColor=none;dashed=0;verticalLabelPosition=bottom;html=1;fontSize=12;fontStyle=0;aspect=fixed;pointerEvents=1;shape=mxgraph.aws4.client;" 
          id="client" 
          parent="app" 
          value="Client" 
          vertex="1"
          >
          <mxGeometry
            as="geometry" 
            width="60" 
            height="60" 
            x="30" 
            y="90"
            />
          </mxCell>
        <mxCell
          style="verticalAlign=top;aspect=fixed;align=left;spacingLeft=30;spacingRight=5;spacingBottom=5;points=[[0,0],[0.25,0],[0.5,0],[0.75,0],[1,0],[1,0.25],[1,0.5],[1,0.75],[1,1],[0.75,1],[0.5,1],[0.25,1],[0,1],[0,0.75],[0,0.5],[0,0.25]];outlineConnect=0;gradientColor=none;html=1;whiteSpace=wrap;fontSize=12;fontStyle=0;container=1;pointerEvents=0;collapsible=0;recursiveResize=0;shape=mxgraph.aws4.group;grIcon=mxgraph.aws4.group_aws_cloud_alt;strokeColor=#232F3E;fillColor=none;fontColor=#232F3E;dashed=0;" 
          id="aws_cloud_cloud" 
          parent="app" 
          value="Cloud" 
          vertex="1"
          >
          <mxGeometry
            as="geometry" 
            width="330" 
            height="310" 
            x="120" 
            y="30"
            />
          </mxCell>
        <mxCell
          style="verticalAlign=top;aspect=fixed;align=left;spacingLeft=30;spacingRight=5;spacingBottom=5;points=[[0,0],[0.25,0],[0.5,0],[0.75,0],[1,0],[1,0.25],[1,0.5],[1,0.75],[1,1],[0.75,1],[0.5,1],[0.25,1],[0,1],[0,0.75],[0,0.5],[0,0.25]];outlineConnect=0;gradientColor=none;html=1;whiteSpace=wrap;fontSize=12;fontStyle=0;container=1;pointerEvents=0;collapsible=0;recursiveResize=0;shape=mxgraph.aws4.group;grIcon=mxgraph.aws4.group_region;strokeColor=#00A4A6;fillColor=none;fontColor=#147EBA;dashed=1;noLabel=1;opacity=0;" 
          id="aws_region_regioneuwest1" 
          parent="aws_cloud_cloud" 
          value="Region: eu-west-1" 
          vertex="1"
          >
          <mxGeometry
            as="geometry" 
            width="300" 
            height="280" 
            x="15" 
            y="15"
            />
          </mxCell>
        <mxCell
          style="verticalAlign=top;aspect=fixed;align=left;spacingLeft=30;spacingRight=5;spacingBottom=5;points=[[0,0],[0.25,0],[0.5,0],[0.75,0],[1,0],[1,0.25],[1,0.5],[1,0.75],[1,1],[0.75,1],[0.5,1],[0.25,1],[0,1],[0,0.75],[0,0.5],[0,0.25]];outlineConnect=0;gradientColor=none;html=1;whiteSpace=wrap;fontSize=12;fontStyle=0;container=1;pointerEvents=0;collapsible=0;recursiveResize=0;shape=mxgraph.aws4.group;grIcon=mxgraph.aws4.group_vpc2;strokeColor=#8C4FFF;fillColor=none;fontColor=#AAB7B8;dashed=0;noLabel=1;opacity=0;" 
          id="vpcid1" 
          parent="aws_region_regioneuwest1" 
          value="Vpc" 
          vertex="1"
          >
          <mxGeometry
            as="geometry" 
            width="300" 
            height="280" 
            x="0" 
            y="0"
            />
          </mxCell>
        <mxCell
          style="verticalAlign=top;aspect=fixed;align=center;spacingLeft=5;spacingRight=5;spacingBottom=5;fillColor=#F2F6E8;strokeColor=#7AA116;fontColor=#7AA116;" 
          id="aws_subnet_publicsubnet" 
          parent="vpcid1" 
          value="Public Subnet" 
          vertex="1"
          >
          <mxGeometry
            as="geometry" 
            width="120" 
            height="250" 
            x="15" 
            y="15"
            />
          </mxCell>
        <mxCell
          style="rounded=1;whiteSpace=wrap;verticalAlign=top;align=center;sketch=0;outlineConnect=0;fontColor=#232F3E;gradientColor=none;fillColor=#8C4FFF;strokeColor=none;dashed=0;verticalLabelPosition=bottom;html=1;fontSize=12;fontStyle=0;aspect=fixed;pointerEvents=1;shape=mxgraph.aws4.application_load_balancer;" 
          id="aws_lb_loadbalancer" 
          parent="aws_subnet_publicsubnet" 
          value="Load Balancer" 
          vertex="1"
          >
          <mxGeometry
            as="geometry" 
            width="60" 
            height="60" 
            x="30" 
            y="30"
            />
          </mxCell>
        <mxCell
          style="rounded=1;whiteSpace=wrap;verticalAlign=top;align=center;sketch=0;points=[[0,0,0],[0.25,0,0],[0.5,0,0],[0.75,0,0],[1,0,0],[0,1,0],[0.25,1,0],[0.5,1,0],[0.75,1,0],[1,1,0],[0,0.25,0],[0,0.5,0],[0,0.75,0],[1,0.25,0],[1,0.5,0],[1,0.75,0]];outlineConnect=0;fontColor=#232F3E;fillColor=#DD344C;strokeColor=#ffffff;dashed=0;verticalLabelPosition=bottom;html=1;fontSize=12;fontStyle=0;aspect=fixed;shape=mxgraph.aws4.resourceIcon;resIcon=mxgraph.aws4.waf;" 
          id="firewall" 
          parent="aws_subnet_publicsubnet" 
          value="Firewall" 
          vertex="1"
          >
          <mxGeometry
            as="geometry" 
            width="60" 
            height="60" 
            x="30" 
            y="140"
            />
          </mxCell>
        <mxCell
          style="verticalAlign=top;aspect=fixed;align=center;spacingLeft=5;spacingRight=5;spacingBottom=5;fillColor=#E6F6F7;strokeColor=#00A4A6;fontColor=#00A4A6;" 
          id="aws_subnet_privatesubnet" 
          parent="vpcid1" 
          value="Private Subnet" 
          vertex="1"
          >
          <mxGeometry
            as="geometry" 
            width="120" 
            height="250" 
            x="165" 
            y="15"
            />
          </mxCell>
        <mxCell
          style="rounded=1;whiteSpace=wrap;verticalAlign=top;align=center;outlineConnect=0;dashed=0;verticalLabelPosition=bottom;html=1;shape=mxgraph.aws3.android;fillColor=#96BF3D;gradientColor=none;" 
          id="aws_instance_application" 
          parent="aws_subnet_privatesubnet" 
          value="Application" 
          vertex="1"
          >
          <mxGeometry
            as="geometry" 
            width="60" 
            height="60" 
            x="30" 
            y="30"
            />
          </mxCell>
        <mxCell
          style="rounded=1;whiteSpace=wrap;verticalAlign=top;align=center;sketch=0;outlineConnect=0;fontColor=#232F3E;gradientColor=none;fillColor=#C925D1;strokeColor=none;dashed=0;verticalLabelPosition=bottom;html=1;fontSize=12;fontStyle=0;aspect=fixed;pointerEvents=1;shape=mxgraph.aws4.rds_postgresql_instance;" 
          id="aws_db_instance_postgres" 
          parent="aws_subnet_privatesubnet" 
          value="Postgres" 
          vertex="1"
          >
          <mxGeometry
            as="geometry" 
            width="60" 
            height="60" 
            x="30" 
            y="140"
            />
          </mxCell>
        <mxCell
          id="dependency" 
          source="client" 
          target="aws_lb_loadbalancer" 
          parent="root" 
          edge="1" 
          style="edgeStyle=orthogonalEdgeStyle;"
          >
          <mxGeometry
            relative="1" 
            as="geometry"
            >
            <Array
              as="points"
              >
              <mxPoint
                x="135" 
                y="120"
                />
              <mxPoint
                x="135" 
                y="120"
                />
              </Array>
            </mxGeometry>
          </mxCell>
        <mxCell
          id="dependency_2" 
          source="aws_lb_loadbalancer" 
          target="firewall" 
          parent="root" 
          edge="1" 
          style="edgeStyle=orthogonalEdgeStyle;"
          >
          <mxGeometry
            relative="1" 
            as="geometry"
            >
            <Array
              as="points"
              >
              <mxPoint
                x="210" 
                y="175"
                />
              <mxPoint
                x="210" 
                y="175"
                />
              </Array>
            </mxGeometry>
          </mxCell>
        <mxCell
          id="dependency_3" 
          source="aws_lb_loadbalancer" 
          target="aws_instance_application" 
          parent="root" 
          edge="1" 
          style="edgeStyle=orthogonalEdgeStyle;"
          >
          <mxGeometry
            relative="1" 
            as="geometry"
            >
            <Array
              as="points"
              >
              <mxPoint
                x="285" 
                y="120"
                />
              <mxPoint
                x="285" 
                y="120"
                />
              </Array>
            </mxGeometry>
          </mxCell>
        <mxCell
          id="dependency_4" 
          source="aws_instance_application" 
          target="aws_db_instance_postgres" 
          parent="root" 
          edge="1" 
          style="edgeStyle=orthogonalEdgeStyle;"
          >
          <mxGeometry
            relative="1" 
            as="geometry"
            >
            <Array
              as="points"
              >
              <mxPoint
                x="360" 
                y="175"
                />
              <mxPoint
                x="360" 
                y="175"
                />
              </Array>
            </mxGeometry>
          </mxCell>
        </root>
      </mxGraphModel>
    </diagram>
  </mxfile>